<svg width="129" height="122" viewBox="0 0 129 122" fill="none" xmlns="http://www.w3.org/2000/svg">
<path fill-rule="evenodd" clip-rule="evenodd" d="M44.8511 119.31C27.5166 113.901 13.2243 101.46 5.64164 85.1736C-1.80247 69.1859 -1.883 51.2157 5.41942 35.8733C12.8104 20.3481 27.0978 8.37316 44.6224 3.02049C62.1055 -2.32 81.0586 -0.520553 96.6174 7.95755C108.098 14.2115 117.51 23.9897 123.116 35.4881L111.414 40.5865C106.913 31.3564 99.3728 23.5177 90.1829 18.5091C77.7716 11.7482 62.6094 10.3263 48.5832 14.6103C34.5178 18.9065 23.0665 28.4791 17.1686 40.8712C11.3608 53.0743 11.4559 67.4336 17.4328 80.2689C22.9441 92.1052 32.7993 101.409 44.8481 106.298L44.8511 119.31ZM64.738 121.999C64.6886 122 64.6397 122 64.5903 122H57.9437V66.9389H34.139V54.6307H57.9437V32.4754H71.0328V54.6322H128.996V60.6235C129.305 87.1757 110.937 111.288 83.4487 119.301C77.4597 121.045 71.0923 121.957 64.738 121.999ZM115.758 66.9408C113.399 85.6354 99.4932 101.88 79.6522 107.663C76.8621 108.475 73.9686 109.063 71.0328 109.418V66.9408H115.758Z" fill="white"/>
</svg>
